<?xml version="1.0" encoding="UTF-8" standalone="no"?>
<svg
   version="1.1"
   width="26.77791mm"
   height="31.792332mm"
   viewBox="0 0 26.77791 31.792331"
   id="svg984"
   xmlns="http://www.w3.org/2000/svg"
   xmlns:svg="http://www.w3.org/2000/svg">
  <defs
     id="defs984" />
  <title
     id="title1">SVG Image created as Schematic.svg date 2024/07/08 20:33:30 </title>
  <desc
     id="desc1">Image generated by Eeschema-SVG </desc>
  <g
     style="fill:none;stroke:#689d6a;stroke-width:0.1524;stroke-linecap:round;stroke-linejoin:round;stroke-opacity:1"
     id="g737"
     transform="translate(-124.99899,-60.375799)">
    <path
       d="m 127,86.36 v 0"
       id="path737" />
  </g>
  <g
     style="fill:none;stroke:#fbf1c7;stroke-width:0.1524;stroke-linecap:round;stroke-linejoin:round;stroke-opacity:1"
     id="g769"
     transform="translate(-124.99899,-60.375799)">
    <text
       x="127"
       y="92.074997"
       textLength="4.0737"
       font-size="1.6933px"
       lengthAdjust="spacingAndGlyphs"
       text-anchor="middle"
       opacity="0"
       id="text737">GND</text>
    <g
       class="stroked-text"
       id="g768">
      <desc
         id="desc737">GND</desc>
      <path
         d="m 126.0324,90.81 -0.121,-0.0605"
         id="path738" />
      <path
         d="M 125.9114,90.7495 H 125.73"
         id="path739" />
      <path
         d="M 125.73,90.7495 125.5486,90.81"
         id="path740" />
      <path
         d="m 125.5486,90.81 -0.121,0.121"
         id="path741" />
      <path
         d="m 125.4276,90.931 -0.0605,0.1209"
         id="path742" />
      <path
         d="m 125.3671,91.0519 -0.0604,0.2419"
         id="path743" />
      <path
         d="m 125.3067,91.2938 v 0.1814"
         id="path744" />
      <path
         d="m 125.3067,91.4752 0.0604,0.2419"
         id="path745" />
      <path
         d="m 125.3671,91.7171 0.0605,0.121"
         id="path746" />
      <path
         d="m 125.4276,91.8381 0.121,0.121"
         id="path747" />
      <path
         d="m 125.5486,91.9591 0.1814,0.0604"
         id="path748" />
      <path
         d="m 125.73,92.0195 h 0.1209"
         id="path749" />
      <path
         d="m 125.8509,92.0195 0.1815,-0.0604"
         id="path750" />
      <path
         d="m 126.0324,91.9591 0.0604,-0.0605"
         id="path751" />
      <path
         d="M 126.0928,91.8986 V 91.4752"
         id="path752" />
      <path
         d="m 126.0928,91.4752 h -0.2419"
         id="path753" />
      <path
         d="m 126.6371,92.0195 v -1.27"
         id="path754" />
      <path
         d="m 126.6371,90.7495 0.7257,1.27"
         id="path755" />
      <path
         d="m 127.3628,92.0195 v -1.27"
         id="path756" />
      <path
         d="m 127.9676,92.0195 v -1.27"
         id="path757" />
      <path
         d="M 127.9676,90.7495 H 128.27"
         id="path758" />
      <path
         d="m 128.27,90.7495 0.1814,0.0605"
         id="path759" />
      <path
         d="m 128.4514,90.81 0.121,0.121"
         id="path760" />
      <path
         d="m 128.5724,90.931 0.0605,0.1209"
         id="path761" />
      <path
         d="m 128.6329,91.0519 0.0604,0.2419"
         id="path762" />
      <path
         d="m 128.6933,91.2938 v 0.1814"
         id="path763" />
      <path
         d="m 128.6933,91.4752 -0.0604,0.2419"
         id="path764" />
      <path
         d="m 128.6329,91.7171 -0.0605,0.121"
         id="path765" />
      <path
         d="m 128.5724,91.8381 -0.121,0.121"
         id="path766" />
      <path
         d="M 128.4514,91.9591 128.27,92.0195"
         id="path767" />
      <path
         d="m 128.27,92.0195 h -0.3024"
         id="path768" />
    </g>
  </g>
  <g
     style="fill:none;stroke:#83a598;stroke-width:0.1524;stroke-linecap:round;stroke-linejoin:round;stroke-opacity:1"
     id="g770"
     transform="translate(-124.99899,-60.375799)">
    <circle
       cx="130.048"
       cy="86.360001"
       r="0.50800002"
       id="circle769" />
    <path
       style="fill:none;stroke:#83a598;stroke-width:0.1524;stroke-linecap:round;stroke-linejoin:round;stroke-opacity:1"
       d="m 130.556,86.106 3.048,-1.524"
       id="path769" />
    <circle
       cx="134.112"
       cy="86.360001"
       r="0.50800002"
       id="circle770" />
  </g>
  <g
     style="fill:none;stroke:#689d6a;stroke-width:0.1524;stroke-linecap:round;stroke-linejoin:round;stroke-opacity:1"
     id="g771"
     transform="translate(-124.99899,-60.375799)">
    <path
       d="M 129.54,86.36 H 127"
       id="path770" />
    <path
       d="m 134.62,86.36 h 2.54"
       id="path771" />
  </g>
  <g
     style="fill:none;stroke:#83a598;stroke-width:0.254;stroke-linecap:round;stroke-linejoin:round;stroke-opacity:1"
     id="g772"
     transform="translate(-124.99899,-60.375799)">
    <rect
       x="139.95399"
       y="80.010002"
       width="2.0320001"
       height="5.0799999"
       rx="0.000000"
       id="rect771" />
  </g>
  <g
     style="fill:none;stroke:#689d6a;stroke-width:0.1524;stroke-linecap:round;stroke-linejoin:round;stroke-opacity:1"
     id="g773"
     transform="translate(-124.99899,-60.375799)">
    <path
       d="M 140.97,80.01 V 78.74"
       id="path772" />
    <path
       d="m 140.97,85.09 v 1.27"
       id="path773" />
  </g>
  <g
     style="fill:none;stroke:#fbf1c7;stroke-width:0.1524;stroke-linecap:round;stroke-linejoin:round;stroke-opacity:1"
     id="g787"
     transform="translate(-124.99899,-60.375799)">
    <text
       x="144.2562"
       y="83.184998"
       textLength="1.4732"
       font-size="1.6933px"
       lengthAdjust="spacingAndGlyphs"
       text-anchor="middle"
       opacity="0"
       id="text773">R</text>
    <g
       class="stroked-text"
       id="g784">
      <desc
         id="desc773">R</desc>
      <path
         d="m 144.6492,83.1295 -0.4233,-0.6047"
         id="path774" />
      <path
         d="m 143.9235,83.1295 v -1.27"
         id="path775" />
      <path
         d="m 143.9235,81.8595 h 0.4838"
         id="path776" />
      <path
         d="m 144.4073,81.8595 0.121,0.0605"
         id="path777" />
      <path
         d="m 144.5283,81.92 0.0605,0.0605"
         id="path778" />
      <path
         d="m 144.5888,81.9805 0.0604,0.1209"
         id="path779" />
      <path
         d="m 144.6492,82.1014 v 0.1815"
         id="path780" />
      <path
         d="m 144.6492,82.2829 -0.0604,0.1209"
         id="path781" />
      <path
         d="m 144.5888,82.4038 -0.0605,0.0605"
         id="path782" />
      <path
         d="m 144.5283,82.4643 -0.121,0.0605"
         id="path783" />
      <path
         d="m 144.4073,82.5248 h -0.4838"
         id="path784" />
    </g>
    <path
       style="fill:none;stroke:#83a598;stroke-width:0.1524;stroke-linecap:round;stroke-linejoin:round;stroke-opacity:1"
       d="M 140.208,77.47 140.97,76.2"
       id="path785" />
    <path
       style="fill:none;stroke:#83a598;stroke-width:0.1524;stroke-linecap:round;stroke-linejoin:round;stroke-opacity:1"
       d="M 140.97,78.74 V 76.2"
       id="path786" />
    <path
       style="fill:none;stroke:#83a598;stroke-width:0.1524;stroke-linecap:round;stroke-linejoin:round;stroke-opacity:1"
       d="m 140.97,76.2 0.762,1.27"
       id="path787" />
  </g>
  <g
     style="fill:none;stroke:#689d6a;stroke-width:0.1524;stroke-linecap:round;stroke-linejoin:round;stroke-opacity:1"
     id="g788"
     transform="translate(-124.99899,-60.375799)">
    <path
       d="m 140.97,78.74 v 0"
       id="path788" />
  </g>
  <g
     style="fill:none;stroke:#fbf1c7;stroke-width:0.1524;stroke-linecap:round;stroke-linejoin:round;stroke-opacity:1"
     id="g821"
     transform="translate(-124.99899,-60.375799)">
    <text
       x="140.97"
       y="74.294998"
       textLength="3.8318"
       font-size="1.6933px"
       lengthAdjust="spacingAndGlyphs"
       text-anchor="middle"
       opacity="0"
       id="text788">VCC</text>
    <g
       class="stroked-text"
       id="g820">
      <desc
         id="desc788">VCC</desc>
      <path
         d="m 139.2766,72.9695 0.4233,1.27"
         id="path789" />
      <path
         d="m 139.6999,74.2395 0.4234,-1.27"
         id="path790" />
      <path
         d="m 141.2723,74.1186 -0.0604,0.0605"
         id="path791" />
      <path
         d="m 141.2119,74.1791 -0.1815,0.0604"
         id="path792" />
      <path
         d="m 141.0304,74.2395 h -0.1209"
         id="path793" />
      <path
         d="m 140.9095,74.2395 -0.1814,-0.0604"
         id="path794" />
      <path
         d="m 140.7281,74.1791 -0.121,-0.121"
         id="path795" />
      <path
         d="m 140.6071,74.0581 -0.0605,-0.121"
         id="path796" />
      <path
         d="m 140.5466,73.9371 -0.0604,-0.2419"
         id="path797" />
      <path
         d="M 140.4862,73.6952 V 73.5138"
         id="path798" />
      <path
         d="m 140.4862,73.5138 0.0604,-0.2419"
         id="path799" />
      <path
         d="m 140.5466,73.2719 0.0605,-0.1209"
         id="path800" />
      <path
         d="m 140.6071,73.151 0.121,-0.121"
         id="path801" />
      <path
         d="m 140.7281,73.03 0.1814,-0.0605"
         id="path802" />
      <path
         d="m 140.9095,72.9695 h 0.1209"
         id="path803" />
      <path
         d="m 141.0304,72.9695 0.1815,0.0605"
         id="path804" />
      <path
         d="m 141.2119,73.03 0.0604,0.0605"
         id="path805" />
      <path
         d="m 142.5423,74.1186 -0.0604,0.0605"
         id="path806" />
      <path
         d="m 142.4819,74.1791 -0.1815,0.0604"
         id="path807" />
      <path
         d="m 142.3004,74.2395 h -0.1209"
         id="path808" />
      <path
         d="m 142.1795,74.2395 -0.1814,-0.0604"
         id="path809" />
      <path
         d="m 141.9981,74.1791 -0.121,-0.121"
         id="path810" />
      <path
         d="m 141.8771,74.0581 -0.0605,-0.121"
         id="path811" />
      <path
         d="m 141.8166,73.9371 -0.0604,-0.2419"
         id="path812" />
      <path
         d="M 141.7562,73.6952 V 73.5138"
         id="path813" />
      <path
         d="m 141.7562,73.5138 0.0604,-0.2419"
         id="path814" />
      <path
         d="m 141.8166,73.2719 0.0605,-0.1209"
         id="path815" />
      <path
         d="m 141.8771,73.151 0.121,-0.121"
         id="path816" />
      <path
         d="m 141.9981,73.03 0.1814,-0.0605"
         id="path817" />
      <path
         d="m 142.1795,72.9695 h 0.1209"
         id="path818" />
      <path
         d="m 142.3004,72.9695 0.1815,0.0605"
         id="path819" />
      <path
         d="m 142.4819,73.03 0.0604,0.0605"
         id="path820" />
    </g>
    <path
       style="fill:none;stroke:#83a598;stroke-width:0.1524;stroke-linecap:round;stroke-linejoin:round;stroke-opacity:1"
       d="m 127,62.23 v 1.27 h 1.27 L 127,64.77 125.73,63.5 H 127"
       id="path821" />
  </g>
  <g
     style="fill:none;stroke:#689d6a;stroke-width:0.1524;stroke-linecap:round;stroke-linejoin:round;stroke-opacity:1"
     id="g822"
     transform="translate(-124.99899,-60.375799)">
    <path
       d="m 127,62.23 v 0"
       id="path822" />
  </g>
  <g
     style="fill:none;stroke:#fbf1c7;stroke-width:0.1524;stroke-linecap:round;stroke-linejoin:round;stroke-opacity:1"
     id="g854"
     transform="translate(-124.99899,-60.375799)">
    <text
       x="127"
       y="67.945"
       textLength="4.0737"
       font-size="1.6933px"
       lengthAdjust="spacingAndGlyphs"
       text-anchor="middle"
       opacity="0"
       id="text822">GND</text>
    <g
       class="stroked-text"
       id="g853">
      <desc
         id="desc822">GND</desc>
      <path
         d="m 126.0324,66.68 -0.121,-0.0605"
         id="path823" />
      <path
         d="M 125.9114,66.6195 H 125.73"
         id="path824" />
      <path
         d="M 125.73,66.6195 125.5486,66.68"
         id="path825" />
      <path
         d="m 125.5486,66.68 -0.121,0.121"
         id="path826" />
      <path
         d="m 125.4276,66.801 -0.0605,0.1209"
         id="path827" />
      <path
         d="m 125.3671,66.9219 -0.0604,0.2419"
         id="path828" />
      <path
         d="m 125.3067,67.1638 v 0.1814"
         id="path829" />
      <path
         d="m 125.3067,67.3452 0.0604,0.2419"
         id="path830" />
      <path
         d="m 125.3671,67.5871 0.0605,0.121"
         id="path831" />
      <path
         d="m 125.4276,67.7081 0.121,0.121"
         id="path832" />
      <path
         d="m 125.5486,67.8291 0.1814,0.0604"
         id="path833" />
      <path
         d="m 125.73,67.8895 h 0.1209"
         id="path834" />
      <path
         d="m 125.8509,67.8895 0.1815,-0.0604"
         id="path835" />
      <path
         d="m 126.0324,67.8291 0.0604,-0.0605"
         id="path836" />
      <path
         d="M 126.0928,67.7686 V 67.3452"
         id="path837" />
      <path
         d="m 126.0928,67.3452 h -0.2419"
         id="path838" />
      <path
         d="m 126.6371,67.8895 v -1.27"
         id="path839" />
      <path
         d="m 126.6371,66.6195 0.7257,1.27"
         id="path840" />
      <path
         d="m 127.3628,67.8895 v -1.27"
         id="path841" />
      <path
         d="m 127.9676,67.8895 v -1.27"
         id="path842" />
      <path
         d="M 127.9676,66.6195 H 128.27"
         id="path843" />
      <path
         d="m 128.27,66.6195 0.1814,0.0605"
         id="path844" />
      <path
         d="m 128.4514,66.68 0.121,0.121"
         id="path845" />
      <path
         d="m 128.5724,66.801 0.0605,0.1209"
         id="path846" />
      <path
         d="m 128.6329,66.9219 0.0604,0.2419"
         id="path847" />
      <path
         d="m 128.6933,67.1638 v 0.1814"
         id="path848" />
      <path
         d="m 128.6933,67.3452 -0.0604,0.2419"
         id="path849" />
      <path
         d="m 128.6329,67.5871 -0.0605,0.121"
         id="path850" />
      <path
         d="m 128.5724,67.7081 -0.121,0.121"
         id="path851" />
      <path
         d="M 128.4514,67.8291 128.27,67.8895"
         id="path852" />
      <path
         d="m 128.27,67.8895 h -0.3024"
         id="path853" />
    </g>
  </g>
  <g
     style="fill:none;stroke:#83a598;stroke-width:0.1524;stroke-linecap:round;stroke-linejoin:round;stroke-opacity:1"
     id="g855"
     transform="translate(-124.99899,-60.375799)">
    <circle
       cx="130.048"
       cy="62.23"
       r="0.50800002"
       id="circle854" />
    <path
       style="fill:none;stroke:#83a598;stroke-width:0.1524;stroke-linecap:round;stroke-linejoin:round;stroke-opacity:1"
       d="m 130.556,61.976 3.048,-1.524"
       id="path854" />
    <circle
       cx="134.112"
       cy="62.23"
       r="0.50800002"
       id="circle855" />
  </g>
  <g
     style="fill:none;stroke:#689d6a;stroke-width:0.1524;stroke-linecap:round;stroke-linejoin:round;stroke-opacity:1"
     id="g856"
     transform="translate(-124.99899,-60.375799)">
    <path
       d="M 129.54,62.23 H 127"
       id="path855" />
    <path
       d="m 134.62,62.23 h 2.54"
       id="path856" />
  </g>
  <g
     style="fill:none;stroke:#fe8019;stroke-width:0.1524;stroke-linecap:round;stroke-linejoin:round;stroke-opacity:1"
     id="g861"
     transform="translate(-124.99899,-60.375799)">
    <text
       x="148.74879"
       y="87.0858"
       textLength="2.1385"
       font-size="1.6933px"
       lengthAdjust="spacingAndGlyphs"
       text-anchor="start"
       opacity="0"
       id="text856">IN</text>
    <g
       class="stroked-text"
       id="g860">
      <desc
         id="desc856">IN</desc>
      <path
         d="m 149.1513,87.0303 v -1.27"
         id="path857" />
      <path
         d="m 149.7561,87.0303 v -1.27"
         id="path858" />
      <path
         d="m 149.7561,85.7603 0.7257,1.27"
         id="path859" />
      <path
         d="m 150.4818,87.0303 v -1.27"
         id="path860" />
    </g>
    <path
       style="fill:none;stroke:#fe8019;stroke-width:0.1524;stroke-linecap:round;stroke-linejoin:round;stroke-opacity:1"
       d="m 147.32,86.36 1.1113,1.2704 h 3.2694 V 86.36 85.0896 h -3.2694 z"
       id="path861" />
  </g>
  <g
     style="fill:none;stroke:#fe8019;stroke-width:0.1524;stroke-linecap:round;stroke-linejoin:round;stroke-opacity:1"
     id="g866"
     transform="translate(-124.99899,-60.375799)">
    <text
       x="148.74879"
       y="62.955799"
       textLength="2.1385"
       font-size="1.6933px"
       lengthAdjust="spacingAndGlyphs"
       text-anchor="start"
       opacity="0"
       id="text861">IN</text>
    <g
       class="stroked-text"
       id="g865">
      <desc
         id="desc861">IN</desc>
      <path
         d="m 149.1513,62.9003 v -1.27"
         id="path862" />
      <path
         d="m 149.7561,62.9003 v -1.27"
         id="path863" />
      <path
         d="m 149.7561,61.6303 0.7257,1.27"
         id="path864" />
      <path
         d="m 150.4818,62.9003 v -1.27"
         id="path865" />
    </g>
    <path
       style="fill:none;stroke:#fe8019;stroke-width:0.1524;stroke-linecap:round;stroke-linejoin:round;stroke-opacity:1"
       d="m 147.32,62.23 1.1113,1.2704 h 3.2694 V 62.23 60.9596 h -3.2694 z"
       id="path866" />
  </g>
  <g
     style="fill:none;stroke:#789d6a;stroke-width:0.1524;stroke-linecap:round;stroke-linejoin:round;stroke-opacity:1"
     id="g869"
     transform="translate(-124.99899,-60.375799)">
    <path
       d="m 140.97,86.36 h 6.35"
       id="path867" />
    <path
       d="m 137.16,86.36 h 3.81"
       id="path868" />
    <path
       d="m 137.16,62.23 h 10.16"
       id="path869" />
  </g>
  <g
     style="fill:none;stroke:#fbf1c7;stroke-width:0.1524;stroke-linecap:round;stroke-linejoin:round;stroke-opacity:1"
     id="g901"
     transform="translate(-124.99899,-60.375799)">
    <text
       x="127"
       y="92.074997"
       textLength="4.0737"
       font-size="1.6933px"
       lengthAdjust="spacingAndGlyphs"
       text-anchor="middle"
       opacity="0"
       id="text869">GND</text>
    <g
       class="stroked-text"
       id="g900">
      <desc
         id="desc869">GND</desc>
      <path
         d="m 126.0324,90.81 -0.121,-0.0605"
         id="path870" />
      <path
         d="M 125.9114,90.7495 H 125.73"
         id="path871" />
      <path
         d="M 125.73,90.7495 125.5486,90.81"
         id="path872" />
      <path
         d="m 125.5486,90.81 -0.121,0.121"
         id="path873" />
      <path
         d="m 125.4276,90.931 -0.0605,0.1209"
         id="path874" />
      <path
         d="m 125.3671,91.0519 -0.0604,0.2419"
         id="path875" />
      <path
         d="m 125.3067,91.2938 v 0.1814"
         id="path876" />
      <path
         d="m 125.3067,91.4752 0.0604,0.2419"
         id="path877" />
      <path
         d="m 125.3671,91.7171 0.0605,0.121"
         id="path878" />
      <path
         d="m 125.4276,91.8381 0.121,0.121"
         id="path879" />
      <path
         d="m 125.5486,91.9591 0.1814,0.0604"
         id="path880" />
      <path
         d="m 125.73,92.0195 h 0.1209"
         id="path881" />
      <path
         d="m 125.8509,92.0195 0.1815,-0.0604"
         id="path882" />
      <path
         d="m 126.0324,91.9591 0.0604,-0.0605"
         id="path883" />
      <path
         d="M 126.0928,91.8986 V 91.4752"
         id="path884" />
      <path
         d="m 126.0928,91.4752 h -0.2419"
         id="path885" />
      <path
         d="m 126.6371,92.0195 v -1.27"
         id="path886" />
      <path
         d="m 126.6371,90.7495 0.7257,1.27"
         id="path887" />
      <path
         d="m 127.3628,92.0195 v -1.27"
         id="path888" />
      <path
         d="m 127.9676,92.0195 v -1.27"
         id="path889" />
      <path
         d="M 127.9676,90.7495 H 128.27"
         id="path890" />
      <path
         d="m 128.27,90.7495 0.1814,0.0605"
         id="path891" />
      <path
         d="m 128.4514,90.81 0.121,0.121"
         id="path892" />
      <path
         d="m 128.5724,90.931 0.0605,0.1209"
         id="path893" />
      <path
         d="m 128.6329,91.0519 0.0604,0.2419"
         id="path894" />
      <path
         d="m 128.6933,91.2938 v 0.1814"
         id="path895" />
      <path
         d="m 128.6933,91.4752 -0.0604,0.2419"
         id="path896" />
      <path
         d="m 128.6329,91.7171 -0.0605,0.121"
         id="path897" />
      <path
         d="m 128.5724,91.8381 -0.121,0.121"
         id="path898" />
      <path
         d="M 128.4514,91.9591 128.27,92.0195"
         id="path899" />
      <path
         d="m 128.27,92.0195 h -0.3024"
         id="path900" />
    </g>
  </g>
  <g
     style="fill:none;stroke:#689d6a;stroke-width:0.1524;stroke-linecap:round;stroke-linejoin:round;stroke-opacity:1"
     id="g903"
     transform="translate(-124.99899,-60.375799)">
    <path
       d="m 127,86.36 v 0"
       id="path901" />
    <path
       d="M 129.54,86.36 H 127"
       id="path902" />
    <path
       d="m 134.62,86.36 h 2.54"
       id="path903" />
  </g>
  <g
     style="fill:none;stroke:#fbf1c7;stroke-width:0.1524;stroke-linecap:round;stroke-linejoin:round;stroke-opacity:1"
     id="g915"
     transform="translate(-124.99899,-60.375799)">
    <text
       x="144.2562"
       y="83.184998"
       textLength="1.4732"
       font-size="1.6933px"
       lengthAdjust="spacingAndGlyphs"
       text-anchor="middle"
       opacity="0"
       id="text903">R</text>
    <g
       class="stroked-text"
       id="g914">
      <desc
         id="desc903">R</desc>
      <path
         d="m 144.6492,83.1295 -0.4233,-0.6047"
         id="path904" />
      <path
         d="m 143.9235,83.1295 v -1.27"
         id="path905" />
      <path
         d="m 143.9235,81.8595 h 0.4838"
         id="path906" />
      <path
         d="m 144.4073,81.8595 0.121,0.0605"
         id="path907" />
      <path
         d="m 144.5283,81.92 0.0605,0.0605"
         id="path908" />
      <path
         d="m 144.5888,81.9805 0.0604,0.1209"
         id="path909" />
      <path
         d="m 144.6492,82.1014 v 0.1815"
         id="path910" />
      <path
         d="m 144.6492,82.2829 -0.0604,0.1209"
         id="path911" />
      <path
         d="m 144.5888,82.4038 -0.0605,0.0605"
         id="path912" />
      <path
         d="m 144.5283,82.4643 -0.121,0.0605"
         id="path913" />
      <path
         d="m 144.4073,82.5248 h -0.4838"
         id="path914" />
    </g>
  </g>
  <g
     style="fill:none;stroke:#689d6a;stroke-width:0.1524;stroke-linecap:round;stroke-linejoin:round;stroke-opacity:1"
     id="g916"
     transform="translate(-124.99899,-60.375799)">
    <path
       d="M 140.97,80.01 V 78.74"
       id="path915" />
    <path
       d="m 140.97,85.09 v 1.27"
       id="path916" />
  </g>
  <g
     style="fill:none;stroke:#fbf1c7;stroke-width:0.1524;stroke-linecap:round;stroke-linejoin:round;stroke-opacity:1"
     id="g949"
     transform="translate(-124.99899,-60.375799)">
    <text
       x="140.97"
       y="74.294998"
       textLength="3.8318"
       font-size="1.6933px"
       lengthAdjust="spacingAndGlyphs"
       text-anchor="middle"
       opacity="0"
       id="text916">VCC</text>
    <g
       class="stroked-text"
       id="g948">
      <desc
         id="desc916">VCC</desc>
      <path
         d="m 139.2766,72.9695 0.4233,1.27"
         id="path917" />
      <path
         d="m 139.6999,74.2395 0.4234,-1.27"
         id="path918" />
      <path
         d="m 141.2723,74.1186 -0.0604,0.0605"
         id="path919" />
      <path
         d="m 141.2119,74.1791 -0.1815,0.0604"
         id="path920" />
      <path
         d="m 141.0304,74.2395 h -0.1209"
         id="path921" />
      <path
         d="m 140.9095,74.2395 -0.1814,-0.0604"
         id="path922" />
      <path
         d="m 140.7281,74.1791 -0.121,-0.121"
         id="path923" />
      <path
         d="m 140.6071,74.0581 -0.0605,-0.121"
         id="path924" />
      <path
         d="m 140.5466,73.9371 -0.0604,-0.2419"
         id="path925" />
      <path
         d="M 140.4862,73.6952 V 73.5138"
         id="path926" />
      <path
         d="m 140.4862,73.5138 0.0604,-0.2419"
         id="path927" />
      <path
         d="m 140.5466,73.2719 0.0605,-0.1209"
         id="path928" />
      <path
         d="m 140.6071,73.151 0.121,-0.121"
         id="path929" />
      <path
         d="m 140.7281,73.03 0.1814,-0.0605"
         id="path930" />
      <path
         d="m 140.9095,72.9695 h 0.1209"
         id="path931" />
      <path
         d="m 141.0304,72.9695 0.1815,0.0605"
         id="path932" />
      <path
         d="m 141.2119,73.03 0.0604,0.0605"
         id="path933" />
      <path
         d="m 142.5423,74.1186 -0.0604,0.0605"
         id="path934" />
      <path
         d="m 142.4819,74.1791 -0.1815,0.0604"
         id="path935" />
      <path
         d="m 142.3004,74.2395 h -0.1209"
         id="path936" />
      <path
         d="m 142.1795,74.2395 -0.1814,-0.0604"
         id="path937" />
      <path
         d="m 141.9981,74.1791 -0.121,-0.121"
         id="path938" />
      <path
         d="m 141.8771,74.0581 -0.0605,-0.121"
         id="path939" />
      <path
         d="m 141.8166,73.9371 -0.0604,-0.2419"
         id="path940" />
      <path
         d="M 141.7562,73.6952 V 73.5138"
         id="path941" />
      <path
         d="m 141.7562,73.5138 0.0604,-0.2419"
         id="path942" />
      <path
         d="m 141.8166,73.2719 0.0605,-0.1209"
         id="path943" />
      <path
         d="m 141.8771,73.151 0.121,-0.121"
         id="path944" />
      <path
         d="m 141.9981,73.03 0.1814,-0.0605"
         id="path945" />
      <path
         d="m 142.1795,72.9695 h 0.1209"
         id="path946" />
      <path
         d="m 142.3004,72.9695 0.1815,0.0605"
         id="path947" />
      <path
         d="m 142.4819,73.03 0.0604,0.0605"
         id="path948" />
    </g>
  </g>
  <g
     style="fill:none;stroke:#689d6a;stroke-width:0.1524;stroke-linecap:round;stroke-linejoin:round;stroke-opacity:1"
     id="g950"
     transform="translate(-124.99899,-60.375799)">
    <path
       d="m 140.97,78.74 v 0"
       id="path949" />
  </g>
  <g
     style="fill:none;stroke:#fbf1c7;stroke-width:0.1524;stroke-linecap:round;stroke-linejoin:round;stroke-opacity:1"
     id="g981"
     transform="translate(-124.99899,-60.375799)">
    <text
       x="127"
       y="67.945"
       textLength="4.0737"
       font-size="1.6933px"
       lengthAdjust="spacingAndGlyphs"
       text-anchor="middle"
       opacity="0"
       id="text950">GND</text>
    <g
       class="stroked-text"
       id="g980">
      <desc
         id="desc950">GND</desc>
      <path
         d="m 126.0324,66.68 -0.121,-0.0605"
         id="path950" />
      <path
         d="M 125.9114,66.6195 H 125.73"
         id="path951" />
      <path
         d="M 125.73,66.6195 125.5486,66.68"
         id="path952" />
      <path
         d="m 125.5486,66.68 -0.121,0.121"
         id="path953" />
      <path
         d="m 125.4276,66.801 -0.0605,0.1209"
         id="path954" />
      <path
         d="m 125.3671,66.9219 -0.0604,0.2419"
         id="path955" />
      <path
         d="m 125.3067,67.1638 v 0.1814"
         id="path956" />
      <path
         d="m 125.3067,67.3452 0.0604,0.2419"
         id="path957" />
      <path
         d="m 125.3671,67.5871 0.0605,0.121"
         id="path958" />
      <path
         d="m 125.4276,67.7081 0.121,0.121"
         id="path959" />
      <path
         d="m 125.5486,67.8291 0.1814,0.0604"
         id="path960" />
      <path
         d="m 125.73,67.8895 h 0.1209"
         id="path961" />
      <path
         d="m 125.8509,67.8895 0.1815,-0.0604"
         id="path962" />
      <path
         d="m 126.0324,67.8291 0.0604,-0.0605"
         id="path963" />
      <path
         d="M 126.0928,67.7686 V 67.3452"
         id="path964" />
      <path
         d="m 126.0928,67.3452 h -0.2419"
         id="path965" />
      <path
         d="m 126.6371,67.8895 v -1.27"
         id="path966" />
      <path
         d="m 126.6371,66.6195 0.7257,1.27"
         id="path967" />
      <path
         d="m 127.3628,67.8895 v -1.27"
         id="path968" />
      <path
         d="m 127.9676,67.8895 v -1.27"
         id="path969" />
      <path
         d="M 127.9676,66.6195 H 128.27"
         id="path970" />
      <path
         d="m 128.27,66.6195 0.1814,0.0605"
         id="path971" />
      <path
         d="m 128.4514,66.68 0.121,0.121"
         id="path972" />
      <path
         d="m 128.5724,66.801 0.0605,0.1209"
         id="path973" />
      <path
         d="m 128.6329,66.9219 0.0604,0.2419"
         id="path974" />
      <path
         d="m 128.6933,67.1638 v 0.1814"
         id="path975" />
      <path
         d="m 128.6933,67.3452 -0.0604,0.2419"
         id="path976" />
      <path
         d="m 128.6329,67.5871 -0.0605,0.121"
         id="path977" />
      <path
         d="m 128.5724,67.7081 -0.121,0.121"
         id="path978" />
      <path
         d="M 128.4514,67.8291 128.27,67.8895"
         id="path979" />
      <path
         d="m 128.27,67.8895 h -0.3024"
         id="path980" />
    </g>
  </g>
  <g
     style="fill:none;stroke:#689d6a;stroke-width:0.1524;stroke-linecap:round;stroke-linejoin:round;stroke-opacity:1"
     id="g983"
     transform="translate(-124.99899,-60.375799)">
    <path
       d="m 127,62.23 v 0"
       id="path981" />
    <path
       d="M 129.54,62.23 H 127"
       id="path982" />
    <path
       d="m 134.62,62.23 h 2.54"
       id="path983" />
  </g>
  <g
     style="fill:#8ec07c;fill-opacity:1;stroke:#8ec07c;stroke-width:0.1524;stroke-linecap:round;stroke-linejoin:round;stroke-opacity:1"
     id="g984"
     transform="translate(-124.99899,-60.375799)">
    <circle
       cx="140.97"
       cy="86.360001"
       r="0.45719999"
       id="circle983" />
  </g>
</svg>
