<?xml version="1.0" encoding="UTF-8" standalone="no"?>
<svg
   version="1.1"
   width="160.66748mm"
   height="45.973995mm"
   viewBox="0 0 160.66748 45.973996"
   id="svg77"
   sodipodi:docname="pull_up_1.svg"
   inkscape:version="1.3.2 (091e20ef0f, 2023-11-25, custom)"
   xmlns:inkscape="http://www.inkscape.org/namespaces/inkscape"
   xmlns:sodipodi="http://sodipodi.sourceforge.net/DTD/sodipodi-0.dtd"
   xmlns="http://www.w3.org/2000/svg"
   xmlns:svg="http://www.w3.org/2000/svg"
   xmlns:rdf="http://www.w3.org/1999/02/22-rdf-syntax-ns#"
   xmlns:cc="http://creativecommons.org/ns#"
   xmlns:dc="http://purl.org/dc/elements/1.1/">
  <defs
     id="defs77" />
  <sodipodi:namedview
     id="namedview77"
     pagecolor="#505050"
     bordercolor="#eeeeee"
     borderopacity="1"
     inkscape:showpageshadow="0"
     inkscape:pageopacity="0"
     inkscape:pagecheckerboard="0"
     inkscape:deskcolor="#505050"
     inkscape:document-units="mm"
     showgrid="false"
     inkscape:zoom="0.63517347"
     inkscape:cx="340.85177"
     inkscape:cy="241.66626"
     inkscape:current-layer="svg77" />
  <title
     id="title1">SVG Image created as pullup.svg date 2024/08/06 10:39:24 </title>
  <desc
     id="desc1">Image generated by Eeschema-SVG </desc>
  <g
     style="fill:#000000;fill-opacity:1;stroke:#000000;stroke-linecap:round;stroke-linejoin:round;stroke-opacity:1"
     id="g1"
     transform="matrix(6,0,0,6,-749.99392,-362.2548)" />
  <g
     style="fill:none;stroke:#83a598;stroke-width:0.1524;stroke-linecap:round;stroke-linejoin:round;stroke-opacity:1"
     id="g2"
     transform="matrix(6,0,0,6,-749.99392,-362.2548)">
    <circle
       cx="130.048"
       cy="62.23"
       r="0.50800002"
       id="circle1" />
    <path
       style="fill:none;stroke:#83a598;stroke-width:0.1524;stroke-linecap:round;stroke-linejoin:round;stroke-opacity:1"
       d="m 130.556,61.976 3.048,-1.524"
       id="path1" />
    <circle
       cx="134.112"
       cy="62.23"
       r="0.50800002"
       id="circle2" />
  </g>
  <g
     style="fill:none;stroke:#689d6a;stroke-width:0.1524;stroke-linecap:round;stroke-linejoin:round;stroke-opacity:1"
     id="g4"
     transform="matrix(6,0,0,6,-749.99392,-362.2548)">
    <path
       d="M 129.54,62.23 H 127"
       id="path2" />
    <path
       d="m 134.62,62.23 h 2.54"
       id="path3" />
    <path
       style="fill:none;stroke:#83a598;stroke-width:0.1524;stroke-linecap:round;stroke-linejoin:round;stroke-opacity:1"
       d="m 127,62.23 v 1.27 h 1.27 L 127,64.77 125.73,63.5 H 127"
       id="path4" />
  </g>
  <g
     style="fill:none;stroke:#689d6a;stroke-width:0.1524;stroke-linecap:round;stroke-linejoin:round;stroke-opacity:1"
     id="g5"
     transform="matrix(6,0,0,6,-749.99392,-362.2548)">
    <path
       d="m 127,62.23 v 0"
       id="path5" />
  </g>
  <g
     style="fill:none;stroke:#fbf1c7;stroke-width:0.1524;stroke-linecap:round;stroke-linejoin:round;stroke-opacity:1"
     id="g37"
     transform="matrix(6,0,0,6,-749.99392,-362.2548)">
    <text
       x="127"
       y="67.945"
       textLength="4.0737"
       font-size="1.6933px"
       lengthAdjust="spacingAndGlyphs"
       text-anchor="middle"
       opacity="0"
       stroke-opacity="0"
       id="text5">GND</text>
    <g
       class="stroked-text"
       id="g36">
      <desc
         id="desc5">GND</desc>
      <path
         d="m 126.0324,66.68 -0.121,-0.0605"
         id="path6" />
      <path
         d="M 125.9114,66.6195 H 125.73"
         id="path7" />
      <path
         d="M 125.73,66.6195 125.5486,66.68"
         id="path8" />
      <path
         d="m 125.5486,66.68 -0.121,0.121"
         id="path9" />
      <path
         d="m 125.4276,66.801 -0.0605,0.1209"
         id="path10" />
      <path
         d="m 125.3671,66.9219 -0.0604,0.2419"
         id="path11" />
      <path
         d="m 125.3067,67.1638 v 0.1814"
         id="path12" />
      <path
         d="m 125.3067,67.3452 0.0604,0.2419"
         id="path13" />
      <path
         d="m 125.3671,67.5871 0.0605,0.121"
         id="path14" />
      <path
         d="m 125.4276,67.7081 0.121,0.121"
         id="path15" />
      <path
         d="m 125.5486,67.8291 0.1814,0.0604"
         id="path16" />
      <path
         d="m 125.73,67.8895 h 0.1209"
         id="path17" />
      <path
         d="m 125.8509,67.8895 0.1815,-0.0604"
         id="path18" />
      <path
         d="m 126.0324,67.8291 0.0604,-0.0605"
         id="path19" />
      <path
         d="M 126.0928,67.7686 V 67.3452"
         id="path20" />
      <path
         d="m 126.0928,67.3452 h -0.2419"
         id="path21" />
      <path
         d="m 126.6371,67.8895 v -1.27"
         id="path22" />
      <path
         d="m 126.6371,66.6195 0.7257,1.27"
         id="path23" />
      <path
         d="m 127.3628,67.8895 v -1.27"
         id="path24" />
      <path
         d="m 127.9676,67.8895 v -1.27"
         id="path25" />
      <path
         d="M 127.9676,66.6195 H 128.27"
         id="path26" />
      <path
         d="m 128.27,66.6195 0.1814,0.0605"
         id="path27" />
      <path
         d="m 128.4514,66.68 0.121,0.121"
         id="path28" />
      <path
         d="m 128.5724,66.801 0.0605,0.1209"
         id="path29" />
      <path
         d="m 128.6329,66.9219 0.0604,0.2419"
         id="path30" />
      <path
         d="m 128.6933,67.1638 v 0.1814"
         id="path31" />
      <path
         d="m 128.6933,67.3452 -0.0604,0.2419"
         id="path32" />
      <path
         d="m 128.6329,67.5871 -0.0605,0.121"
         id="path33" />
      <path
         d="m 128.5724,67.7081 -0.121,0.121"
         id="path34" />
      <path
         d="M 128.4514,67.8291 128.27,67.8895"
         id="path35" />
      <path
         d="m 128.27,67.8895 h -0.3024"
         id="path36" />
    </g>
  </g>
  <g
     style="fill:none;stroke:#fe8019;stroke-width:0.1524;stroke-linecap:round;stroke-linejoin:round;stroke-opacity:1"
     id="g41"
     transform="matrix(6,0,0,6,-749.99392,-362.2548)">
    <text
       x="148.74879"
       y="62.955799"
       textLength="2.1385"
       font-size="1.6933px"
       lengthAdjust="spacingAndGlyphs"
       text-anchor="start"
       opacity="0"
       stroke-opacity="0"
       id="text37">IN</text>
    <g
       class="stroked-text"
       id="g40">
      <desc
         id="desc37">IN</desc>
      <path
         d="m 149.1513,62.9003 v -1.27"
         id="path37" />
      <path
         d="m 149.7561,62.9003 v -1.27"
         id="path38" />
      <path
         d="m 149.7561,61.6303 0.7257,1.27"
         id="path39" />
      <path
         d="m 150.4818,62.9003 v -1.27"
         id="path40" />
    </g>
    <path
       style="fill:none;stroke:#fe8019;stroke-width:0.1524;stroke-linecap:round;stroke-linejoin:round;stroke-opacity:1"
       d="m 147.32,62.23 1.1113,1.2704 h 3.2694 V 62.23 60.9596 h -3.2694 z"
       id="path41" />
  </g>
  <g
     style="fill:none;stroke:#789d6a;stroke-width:0.1524;stroke-linecap:round;stroke-linejoin:round;stroke-opacity:1"
     id="g42"
     transform="matrix(6,0,0,6,-749.99392,-362.2548)">
    <path
       d="m 137.16,62.23 h 10.16"
       id="path42" />
  </g>
  <g
     style="fill:none;stroke:#689d6a;stroke-width:0.1524;stroke-linecap:round;stroke-linejoin:round;stroke-opacity:1"
     id="g44"
     transform="matrix(6,0,0,6,-749.99392,-362.2548)">
    <path
       d="M 129.54,62.23 H 127"
       id="path43" />
    <path
       d="m 134.62,62.23 h 2.54"
       id="path44" />
  </g>
  <g
     style="fill:none;stroke:#fbf1c7;stroke-width:0.1524;stroke-linecap:round;stroke-linejoin:round;stroke-opacity:1"
     id="g76"
     transform="matrix(6,0,0,6,-749.99392,-362.2548)">
    <text
       x="127"
       y="67.945"
       textLength="4.0737"
       font-size="1.6933px"
       lengthAdjust="spacingAndGlyphs"
       text-anchor="middle"
       opacity="0"
       stroke-opacity="0"
       id="text44">GND</text>
    <g
       class="stroked-text"
       id="g75">
      <desc
         id="desc44">GND</desc>
      <path
         d="m 126.0324,66.68 -0.121,-0.0605"
         id="path45" />
      <path
         d="M 125.9114,66.6195 H 125.73"
         id="path46" />
      <path
         d="M 125.73,66.6195 125.5486,66.68"
         id="path47" />
      <path
         d="m 125.5486,66.68 -0.121,0.121"
         id="path48" />
      <path
         d="m 125.4276,66.801 -0.0605,0.1209"
         id="path49" />
      <path
         d="m 125.3671,66.9219 -0.0604,0.2419"
         id="path50" />
      <path
         d="m 125.3067,67.1638 v 0.1814"
         id="path51" />
      <path
         d="m 125.3067,67.3452 0.0604,0.2419"
         id="path52" />
      <path
         d="m 125.3671,67.5871 0.0605,0.121"
         id="path53" />
      <path
         d="m 125.4276,67.7081 0.121,0.121"
         id="path54" />
      <path
         d="m 125.5486,67.8291 0.1814,0.0604"
         id="path55" />
      <path
         d="m 125.73,67.8895 h 0.1209"
         id="path56" />
      <path
         d="m 125.8509,67.8895 0.1815,-0.0604"
         id="path57" />
      <path
         d="m 126.0324,67.8291 0.0604,-0.0605"
         id="path58" />
      <path
         d="M 126.0928,67.7686 V 67.3452"
         id="path59" />
      <path
         d="m 126.0928,67.3452 h -0.2419"
         id="path60" />
      <path
         d="m 126.6371,67.8895 v -1.27"
         id="path61" />
      <path
         d="m 126.6371,66.6195 0.7257,1.27"
         id="path62" />
      <path
         d="m 127.3628,67.8895 v -1.27"
         id="path63" />
      <path
         d="m 127.9676,67.8895 v -1.27"
         id="path64" />
      <path
         d="M 127.9676,66.6195 H 128.27"
         id="path65" />
      <path
         d="m 128.27,66.6195 0.1814,0.0605"
         id="path66" />
      <path
         d="m 128.4514,66.68 0.121,0.121"
         id="path67" />
      <path
         d="m 128.5724,66.801 0.0605,0.1209"
         id="path68" />
      <path
         d="m 128.6329,66.9219 0.0604,0.2419"
         id="path69" />
      <path
         d="m 128.6933,67.1638 v 0.1814"
         id="path70" />
      <path
         d="m 128.6933,67.3452 -0.0604,0.2419"
         id="path71" />
      <path
         d="m 128.6329,67.5871 -0.0605,0.121"
         id="path72" />
      <path
         d="m 128.5724,67.7081 -0.121,0.121"
         id="path73" />
      <path
         d="M 128.4514,67.8291 128.27,67.8895"
         id="path74" />
      <path
         d="m 128.27,67.8895 h -0.3024"
         id="path75" />
    </g>
  </g>
  <g
     style="fill:none;stroke:#689d6a;stroke-width:0.1524;stroke-linecap:round;stroke-linejoin:round;stroke-opacity:1"
     id="g77"
     transform="matrix(6,0,0,6,-749.99392,-362.2548)">
    <path
       d="m 127,62.23 v 0"
       id="path76" />
  </g>
  <metadata
     id="metadata77">
    <rdf:RDF>
      <cc:Work
         rdf:about="">
        <dc:title>SVG Image created as pullup.svg date 2024/08/06 10:39:24 </dc:title>
      </cc:Work>
    </rdf:RDF>
  </metadata>
</svg>
