<?xml version="1.0" encoding="UTF-8" standalone="no"?>
<svg
   version="1.1"
   width="160.66748mm"
   height="115.64898mm"
   viewBox="0 0 160.66748 115.64898"
   id="svg175"
   sodipodi:docname="pull_up_2.svg"
   inkscape:version="1.3.2 (091e20ef0f, 2023-11-25, custom)"
   xmlns:inkscape="http://www.inkscape.org/namespaces/inkscape"
   xmlns:sodipodi="http://sodipodi.sourceforge.net/DTD/sodipodi-0.dtd"
   xmlns="http://www.w3.org/2000/svg"
   xmlns:svg="http://www.w3.org/2000/svg"
   xmlns:rdf="http://www.w3.org/1999/02/22-rdf-syntax-ns#"
   xmlns:cc="http://creativecommons.org/ns#"
   xmlns:dc="http://purl.org/dc/elements/1.1/">
  <defs
     id="defs175" />
  <sodipodi:namedview
     id="namedview175"
     pagecolor="#505050"
     bordercolor="#eeeeee"
     borderopacity="1"
     inkscape:showpageshadow="0"
     inkscape:pageopacity="0"
     inkscape:pagecheckerboard="0"
     inkscape:deskcolor="#505050"
     inkscape:document-units="mm"
     showgrid="false"
     inkscape:zoom="0.5744431"
     inkscape:cx="258.51124"
     inkscape:cy="187.13777"
     inkscape:current-layer="svg175" />
  <title
     id="title1">SVG Image created as pullup.svg date 2024/08/06 10:43:25 </title>
  <desc
     id="desc1">Image generated by Eeschema-SVG </desc>
  <g
     style="fill:#000000;fill-opacity:1;stroke:#000000;stroke-linecap:round;stroke-linejoin:round;stroke-opacity:1"
     transform="matrix(6,0,0,6,-749.99392,-437.3598)"
     id="g1" />
  <g
     style="fill:none;stroke:#83a598;stroke-width:0.254;stroke-linecap:round;stroke-linejoin:round;stroke-opacity:1"
     id="g2"
     transform="matrix(6,0,0,6,-749.99392,-437.3598)">
    <rect
       x="139.95399"
       y="80.010002"
       width="2.0320001"
       height="5.0799999"
       rx="0.000000"
       id="rect1" />
  </g>
  <g
     style="fill:none;stroke:#689d6a;stroke-width:0.1524;stroke-linecap:round;stroke-linejoin:round;stroke-opacity:1"
     id="g3"
     transform="matrix(6,0,0,6,-749.99392,-437.3598)">
    <path
       d="M 140.97,80.01 V 78.74"
       id="path2" />
    <path
       d="m 140.97,85.09 v 1.27"
       id="path3" />
  </g>
  <g
     style="fill:none;stroke:#fbf1c7;stroke-width:0.1524;stroke-linecap:round;stroke-linejoin:round;stroke-opacity:1"
     id="g15"
     transform="matrix(6,0,0,6,-749.99392,-437.3598)">
    <text
       x="144.2562"
       y="83.184998"
       textLength="1.4732"
       font-size="1.6933px"
       lengthAdjust="spacingAndGlyphs"
       text-anchor="middle"
       opacity="0"
       stroke-opacity="0"
       id="text3">R</text>
    <g
       class="stroked-text"
       id="g14">
      <desc
         id="desc3">R</desc>
      <path
         d="m 144.6492,83.1295 -0.4233,-0.6047"
         id="path4" />
      <path
         d="m 143.9235,83.1295 v -1.27"
         id="path5" />
      <path
         d="m 143.9235,81.8595 h 0.4838"
         id="path6" />
      <path
         d="m 144.4073,81.8595 0.121,0.0605"
         id="path7" />
      <path
         d="m 144.5283,81.92 0.0605,0.0605"
         id="path8" />
      <path
         d="m 144.5888,81.9805 0.0604,0.1209"
         id="path9" />
      <path
         d="m 144.6492,82.1014 v 0.1815"
         id="path10" />
      <path
         d="m 144.6492,82.2829 -0.0604,0.1209"
         id="path11" />
      <path
         d="m 144.5888,82.4038 -0.0605,0.0605"
         id="path12" />
      <path
         d="m 144.5283,82.4643 -0.121,0.0605"
         id="path13" />
      <path
         d="m 144.4073,82.5248 h -0.4838"
         id="path14" />
    </g>
    <path
       style="fill:none;stroke:#83a598;stroke-width:0.1524;stroke-linecap:round;stroke-linejoin:round;stroke-opacity:1"
       d="m 127,86.36 v 1.27 h 1.27 L 127,88.9 125.73,87.63 H 127"
       id="path15" />
  </g>
  <g
     style="fill:none;stroke:#689d6a;stroke-width:0.1524;stroke-linecap:round;stroke-linejoin:round;stroke-opacity:1"
     id="g16"
     transform="matrix(6,0,0,6,-749.99392,-437.3598)">
    <path
       d="m 127,86.36 v 0"
       id="path16" />
  </g>
  <g
     style="fill:none;stroke:#fbf1c7;stroke-width:0.1524;stroke-linecap:round;stroke-linejoin:round;stroke-opacity:1"
     id="g48"
     transform="matrix(6,0,0,6,-749.99392,-437.3598)">
    <text
       x="127"
       y="92.074997"
       textLength="4.0737"
       font-size="1.6933px"
       lengthAdjust="spacingAndGlyphs"
       text-anchor="middle"
       opacity="0"
       stroke-opacity="0"
       id="text16">GND</text>
    <g
       class="stroked-text"
       id="g47">
      <desc
         id="desc16">GND</desc>
      <path
         d="m 126.0324,90.81 -0.121,-0.0605"
         id="path17" />
      <path
         d="M 125.9114,90.7495 H 125.73"
         id="path18" />
      <path
         d="M 125.73,90.7495 125.5486,90.81"
         id="path19" />
      <path
         d="m 125.5486,90.81 -0.121,0.121"
         id="path20" />
      <path
         d="m 125.4276,90.931 -0.0605,0.1209"
         id="path21" />
      <path
         d="m 125.3671,91.0519 -0.0604,0.2419"
         id="path22" />
      <path
         d="m 125.3067,91.2938 v 0.1814"
         id="path23" />
      <path
         d="m 125.3067,91.4752 0.0604,0.2419"
         id="path24" />
      <path
         d="m 125.3671,91.7171 0.0605,0.121"
         id="path25" />
      <path
         d="m 125.4276,91.8381 0.121,0.121"
         id="path26" />
      <path
         d="m 125.5486,91.9591 0.1814,0.0604"
         id="path27" />
      <path
         d="m 125.73,92.0195 h 0.1209"
         id="path28" />
      <path
         d="m 125.8509,92.0195 0.1815,-0.0604"
         id="path29" />
      <path
         d="m 126.0324,91.9591 0.0604,-0.0605"
         id="path30" />
      <path
         d="M 126.0928,91.8986 V 91.4752"
         id="path31" />
      <path
         d="m 126.0928,91.4752 h -0.2419"
         id="path32" />
      <path
         d="m 126.6371,92.0195 v -1.27"
         id="path33" />
      <path
         d="m 126.6371,90.7495 0.7257,1.27"
         id="path34" />
      <path
         d="m 127.3628,92.0195 v -1.27"
         id="path35" />
      <path
         d="m 127.9676,92.0195 v -1.27"
         id="path36" />
      <path
         d="M 127.9676,90.7495 H 128.27"
         id="path37" />
      <path
         d="m 128.27,90.7495 0.1814,0.0605"
         id="path38" />
      <path
         d="m 128.4514,90.81 0.121,0.121"
         id="path39" />
      <path
         d="m 128.5724,90.931 0.0605,0.1209"
         id="path40" />
      <path
         d="m 128.6329,91.0519 0.0604,0.2419"
         id="path41" />
      <path
         d="m 128.6933,91.2938 v 0.1814"
         id="path42" />
      <path
         d="m 128.6933,91.4752 -0.0604,0.2419"
         id="path43" />
      <path
         d="m 128.6329,91.7171 -0.0605,0.121"
         id="path44" />
      <path
         d="m 128.5724,91.8381 -0.121,0.121"
         id="path45" />
      <path
         d="M 128.4514,91.9591 128.27,92.0195"
         id="path46" />
      <path
         d="m 128.27,92.0195 h -0.3024"
         id="path47" />
    </g>
  </g>
  <g
     style="fill:none;stroke:#83a598;stroke-width:0.1524;stroke-linecap:round;stroke-linejoin:round;stroke-opacity:1"
     id="g49"
     transform="matrix(6,0,0,6,-749.99392,-437.3598)">
    <circle
       cx="130.048"
       cy="86.360001"
       r="0.50800002"
       id="circle48" />
    <path
       style="fill:none;stroke:#83a598;stroke-width:0.1524;stroke-linecap:round;stroke-linejoin:round;stroke-opacity:1"
       d="m 130.556,86.106 3.048,-1.524"
       id="path48" />
    <circle
       cx="134.112"
       cy="86.360001"
       r="0.50800002"
       id="circle49" />
  </g>
  <g
     style="fill:none;stroke:#689d6a;stroke-width:0.1524;stroke-linecap:round;stroke-linejoin:round;stroke-opacity:1"
     id="g53"
     transform="matrix(6,0,0,6,-749.99392,-437.3598)">
    <path
       d="M 129.54,86.36 H 127"
       id="path49" />
    <path
       d="m 134.62,86.36 h 2.54"
       id="path50" />
    <path
       style="fill:none;stroke:#83a598;stroke-width:0.1524;stroke-linecap:round;stroke-linejoin:round;stroke-opacity:1"
       d="M 140.208,77.47 140.97,76.2"
       id="path51" />
    <path
       style="fill:none;stroke:#83a598;stroke-width:0.1524;stroke-linecap:round;stroke-linejoin:round;stroke-opacity:1"
       d="M 140.97,78.74 V 76.2"
       id="path52" />
    <path
       style="fill:none;stroke:#83a598;stroke-width:0.1524;stroke-linecap:round;stroke-linejoin:round;stroke-opacity:1"
       d="m 140.97,76.2 0.762,1.27"
       id="path53" />
  </g>
  <g
     style="fill:none;stroke:#689d6a;stroke-width:0.1524;stroke-linecap:round;stroke-linejoin:round;stroke-opacity:1"
     id="g54"
     transform="matrix(6,0,0,6,-749.99392,-437.3598)">
    <path
       d="m 140.97,78.74 v 0"
       id="path54" />
  </g>
  <g
     style="fill:none;stroke:#fbf1c7;stroke-width:0.1524;stroke-linecap:round;stroke-linejoin:round;stroke-opacity:1"
     id="g87"
     transform="matrix(6,0,0,6,-749.99392,-437.3598)">
    <text
       x="140.97"
       y="74.294998"
       textLength="3.8318"
       font-size="1.6933px"
       lengthAdjust="spacingAndGlyphs"
       text-anchor="middle"
       opacity="0"
       stroke-opacity="0"
       id="text54">VCC</text>
    <g
       class="stroked-text"
       id="g86">
      <desc
         id="desc54">VCC</desc>
      <path
         d="m 139.2766,72.9695 0.4233,1.27"
         id="path55" />
      <path
         d="m 139.6999,74.2395 0.4234,-1.27"
         id="path56" />
      <path
         d="m 141.2723,74.1186 -0.0604,0.0605"
         id="path57" />
      <path
         d="m 141.2119,74.1791 -0.1815,0.0604"
         id="path58" />
      <path
         d="m 141.0304,74.2395 h -0.1209"
         id="path59" />
      <path
         d="m 140.9095,74.2395 -0.1814,-0.0604"
         id="path60" />
      <path
         d="m 140.7281,74.1791 -0.121,-0.121"
         id="path61" />
      <path
         d="m 140.6071,74.0581 -0.0605,-0.121"
         id="path62" />
      <path
         d="m 140.5466,73.9371 -0.0604,-0.2419"
         id="path63" />
      <path
         d="M 140.4862,73.6952 V 73.5138"
         id="path64" />
      <path
         d="m 140.4862,73.5138 0.0604,-0.2419"
         id="path65" />
      <path
         d="m 140.5466,73.2719 0.0605,-0.1209"
         id="path66" />
      <path
         d="m 140.6071,73.151 0.121,-0.121"
         id="path67" />
      <path
         d="m 140.7281,73.03 0.1814,-0.0605"
         id="path68" />
      <path
         d="m 140.9095,72.9695 h 0.1209"
         id="path69" />
      <path
         d="m 141.0304,72.9695 0.1815,0.0605"
         id="path70" />
      <path
         d="m 141.2119,73.03 0.0604,0.0605"
         id="path71" />
      <path
         d="m 142.5423,74.1186 -0.0604,0.0605"
         id="path72" />
      <path
         d="m 142.4819,74.1791 -0.1815,0.0604"
         id="path73" />
      <path
         d="m 142.3004,74.2395 h -0.1209"
         id="path74" />
      <path
         d="m 142.1795,74.2395 -0.1814,-0.0604"
         id="path75" />
      <path
         d="m 141.9981,74.1791 -0.121,-0.121"
         id="path76" />
      <path
         d="m 141.8771,74.0581 -0.0605,-0.121"
         id="path77" />
      <path
         d="m 141.8166,73.9371 -0.0604,-0.2419"
         id="path78" />
      <path
         d="M 141.7562,73.6952 V 73.5138"
         id="path79" />
      <path
         d="m 141.7562,73.5138 0.0604,-0.2419"
         id="path80" />
      <path
         d="m 141.8166,73.2719 0.0605,-0.1209"
         id="path81" />
      <path
         d="m 141.8771,73.151 0.121,-0.121"
         id="path82" />
      <path
         d="m 141.9981,73.03 0.1814,-0.0605"
         id="path83" />
      <path
         d="m 142.1795,72.9695 h 0.1209"
         id="path84" />
      <path
         d="m 142.3004,72.9695 0.1815,0.0605"
         id="path85" />
      <path
         d="m 142.4819,73.03 0.0604,0.0605"
         id="path86" />
    </g>
  </g>
  <g
     style="fill:none;stroke:#fe8019;stroke-width:0.1524;stroke-linecap:round;stroke-linejoin:round;stroke-opacity:1"
     id="g91"
     transform="matrix(6,0,0,6,-749.99392,-437.3598)">
    <text
       x="148.74879"
       y="87.0858"
       textLength="2.1385"
       font-size="1.6933px"
       lengthAdjust="spacingAndGlyphs"
       text-anchor="start"
       opacity="0"
       stroke-opacity="0"
       id="text87">IN</text>
    <g
       class="stroked-text"
       id="g90">
      <desc
         id="desc87">IN</desc>
      <path
         d="m 149.1513,87.0303 v -1.27"
         id="path87" />
      <path
         d="m 149.7561,87.0303 v -1.27"
         id="path88" />
      <path
         d="m 149.7561,85.7603 0.7257,1.27"
         id="path89" />
      <path
         d="m 150.4818,87.0303 v -1.27"
         id="path90" />
    </g>
    <path
       style="fill:none;stroke:#fe8019;stroke-width:0.1524;stroke-linecap:round;stroke-linejoin:round;stroke-opacity:1"
       d="m 147.32,86.36 1.1113,1.2704 h 3.2694 V 86.36 85.0896 h -3.2694 z"
       id="path91" />
  </g>
  <g
     style="fill:none;stroke:#789d6a;stroke-width:0.1524;stroke-linecap:round;stroke-linejoin:round;stroke-opacity:1"
     id="g93"
     transform="matrix(6,0,0,6,-749.99392,-437.3598)">
    <path
       d="m 140.97,86.36 h 6.35"
       id="path92" />
    <path
       d="m 137.16,86.36 h 3.81"
       id="path93" />
  </g>
  <g
     style="fill:none;stroke:#fbf1c7;stroke-width:0.1524;stroke-linecap:round;stroke-linejoin:round;stroke-opacity:1"
     id="g105"
     transform="matrix(6,0,0,6,-749.99392,-437.3598)">
    <text
       x="144.2562"
       y="83.184998"
       textLength="1.4732"
       font-size="1.6933px"
       lengthAdjust="spacingAndGlyphs"
       text-anchor="middle"
       opacity="0"
       stroke-opacity="0"
       id="text93">R</text>
    <g
       class="stroked-text"
       id="g104">
      <desc
         id="desc93">R</desc>
      <path
         d="m 144.6492,83.1295 -0.4233,-0.6047"
         id="path94" />
      <path
         d="m 143.9235,83.1295 v -1.27"
         id="path95" />
      <path
         d="m 143.9235,81.8595 h 0.4838"
         id="path96" />
      <path
         d="m 144.4073,81.8595 0.121,0.0605"
         id="path97" />
      <path
         d="m 144.5283,81.92 0.0605,0.0605"
         id="path98" />
      <path
         d="m 144.5888,81.9805 0.0604,0.1209"
         id="path99" />
      <path
         d="m 144.6492,82.1014 v 0.1815"
         id="path100" />
      <path
         d="m 144.6492,82.2829 -0.0604,0.1209"
         id="path101" />
      <path
         d="m 144.5888,82.4038 -0.0605,0.0605"
         id="path102" />
      <path
         d="m 144.5283,82.4643 -0.121,0.0605"
         id="path103" />
      <path
         d="m 144.4073,82.5248 h -0.4838"
         id="path104" />
    </g>
  </g>
  <g
     style="fill:none;stroke:#689d6a;stroke-width:0.1524;stroke-linecap:round;stroke-linejoin:round;stroke-opacity:1"
     id="g106"
     transform="matrix(6,0,0,6,-749.99392,-437.3598)">
    <path
       d="M 140.97,80.01 V 78.74"
       id="path105" />
    <path
       d="m 140.97,85.09 v 1.27"
       id="path106" />
  </g>
  <g
     style="fill:none;stroke:#fbf1c7;stroke-width:0.1524;stroke-linecap:round;stroke-linejoin:round;stroke-opacity:1"
     id="g138"
     transform="matrix(6,0,0,6,-749.99392,-437.3598)">
    <text
       x="127"
       y="92.074997"
       textLength="4.0737"
       font-size="1.6933px"
       lengthAdjust="spacingAndGlyphs"
       text-anchor="middle"
       opacity="0"
       stroke-opacity="0"
       id="text106">GND</text>
    <g
       class="stroked-text"
       id="g137">
      <desc
         id="desc106">GND</desc>
      <path
         d="m 126.0324,90.81 -0.121,-0.0605"
         id="path107" />
      <path
         d="M 125.9114,90.7495 H 125.73"
         id="path108" />
      <path
         d="M 125.73,90.7495 125.5486,90.81"
         id="path109" />
      <path
         d="m 125.5486,90.81 -0.121,0.121"
         id="path110" />
      <path
         d="m 125.4276,90.931 -0.0605,0.1209"
         id="path111" />
      <path
         d="m 125.3671,91.0519 -0.0604,0.2419"
         id="path112" />
      <path
         d="m 125.3067,91.2938 v 0.1814"
         id="path113" />
      <path
         d="m 125.3067,91.4752 0.0604,0.2419"
         id="path114" />
      <path
         d="m 125.3671,91.7171 0.0605,0.121"
         id="path115" />
      <path
         d="m 125.4276,91.8381 0.121,0.121"
         id="path116" />
      <path
         d="m 125.5486,91.9591 0.1814,0.0604"
         id="path117" />
      <path
         d="m 125.73,92.0195 h 0.1209"
         id="path118" />
      <path
         d="m 125.8509,92.0195 0.1815,-0.0604"
         id="path119" />
      <path
         d="m 126.0324,91.9591 0.0604,-0.0605"
         id="path120" />
      <path
         d="M 126.0928,91.8986 V 91.4752"
         id="path121" />
      <path
         d="m 126.0928,91.4752 h -0.2419"
         id="path122" />
      <path
         d="m 126.6371,92.0195 v -1.27"
         id="path123" />
      <path
         d="m 126.6371,90.7495 0.7257,1.27"
         id="path124" />
      <path
         d="m 127.3628,92.0195 v -1.27"
         id="path125" />
      <path
         d="m 127.9676,92.0195 v -1.27"
         id="path126" />
      <path
         d="M 127.9676,90.7495 H 128.27"
         id="path127" />
      <path
         d="m 128.27,90.7495 0.1814,0.0605"
         id="path128" />
      <path
         d="m 128.4514,90.81 0.121,0.121"
         id="path129" />
      <path
         d="m 128.5724,90.931 0.0605,0.1209"
         id="path130" />
      <path
         d="m 128.6329,91.0519 0.0604,0.2419"
         id="path131" />
      <path
         d="m 128.6933,91.2938 v 0.1814"
         id="path132" />
      <path
         d="m 128.6933,91.4752 -0.0604,0.2419"
         id="path133" />
      <path
         d="m 128.6329,91.7171 -0.0605,0.121"
         id="path134" />
      <path
         d="m 128.5724,91.8381 -0.121,0.121"
         id="path135" />
      <path
         d="M 128.4514,91.9591 128.27,92.0195"
         id="path136" />
      <path
         d="m 128.27,92.0195 h -0.3024"
         id="path137" />
    </g>
  </g>
  <g
     style="fill:none;stroke:#689d6a;stroke-width:0.1524;stroke-linecap:round;stroke-linejoin:round;stroke-opacity:1"
     id="g140"
     transform="matrix(6,0,0,6,-749.99392,-437.3598)">
    <path
       d="m 127,86.36 v 0"
       id="path138" />
    <path
       d="M 129.54,86.36 H 127"
       id="path139" />
    <path
       d="m 134.62,86.36 h 2.54"
       id="path140" />
  </g>
  <g
     style="fill:none;stroke:#fbf1c7;stroke-width:0.1524;stroke-linecap:round;stroke-linejoin:round;stroke-opacity:1"
     id="g173"
     transform="matrix(6,0,0,6,-749.99392,-437.3598)">
    <text
       x="140.97"
       y="74.294998"
       textLength="3.8318"
       font-size="1.6933px"
       lengthAdjust="spacingAndGlyphs"
       text-anchor="middle"
       opacity="0"
       stroke-opacity="0"
       id="text140">VCC</text>
    <g
       class="stroked-text"
       id="g172">
      <desc
         id="desc140">VCC</desc>
      <path
         d="m 139.2766,72.9695 0.4233,1.27"
         id="path141" />
      <path
         d="m 139.6999,74.2395 0.4234,-1.27"
         id="path142" />
      <path
         d="m 141.2723,74.1186 -0.0604,0.0605"
         id="path143" />
      <path
         d="m 141.2119,74.1791 -0.1815,0.0604"
         id="path144" />
      <path
         d="m 141.0304,74.2395 h -0.1209"
         id="path145" />
      <path
         d="m 140.9095,74.2395 -0.1814,-0.0604"
         id="path146" />
      <path
         d="m 140.7281,74.1791 -0.121,-0.121"
         id="path147" />
      <path
         d="m 140.6071,74.0581 -0.0605,-0.121"
         id="path148" />
      <path
         d="m 140.5466,73.9371 -0.0604,-0.2419"
         id="path149" />
      <path
         d="M 140.4862,73.6952 V 73.5138"
         id="path150" />
      <path
         d="m 140.4862,73.5138 0.0604,-0.2419"
         id="path151" />
      <path
         d="m 140.5466,73.2719 0.0605,-0.1209"
         id="path152" />
      <path
         d="m 140.6071,73.151 0.121,-0.121"
         id="path153" />
      <path
         d="m 140.7281,73.03 0.1814,-0.0605"
         id="path154" />
      <path
         d="m 140.9095,72.9695 h 0.1209"
         id="path155" />
      <path
         d="m 141.0304,72.9695 0.1815,0.0605"
         id="path156" />
      <path
         d="m 141.2119,73.03 0.0604,0.0605"
         id="path157" />
      <path
         d="m 142.5423,74.1186 -0.0604,0.0605"
         id="path158" />
      <path
         d="m 142.4819,74.1791 -0.1815,0.0604"
         id="path159" />
      <path
         d="m 142.3004,74.2395 h -0.1209"
         id="path160" />
      <path
         d="m 142.1795,74.2395 -0.1814,-0.0604"
         id="path161" />
      <path
         d="m 141.9981,74.1791 -0.121,-0.121"
         id="path162" />
      <path
         d="m 141.8771,74.0581 -0.0605,-0.121"
         id="path163" />
      <path
         d="m 141.8166,73.9371 -0.0604,-0.2419"
         id="path164" />
      <path
         d="M 141.7562,73.6952 V 73.5138"
         id="path165" />
      <path
         d="m 141.7562,73.5138 0.0604,-0.2419"
         id="path166" />
      <path
         d="m 141.8166,73.2719 0.0605,-0.1209"
         id="path167" />
      <path
         d="m 141.8771,73.151 0.121,-0.121"
         id="path168" />
      <path
         d="m 141.9981,73.03 0.1814,-0.0605"
         id="path169" />
      <path
         d="m 142.1795,72.9695 h 0.1209"
         id="path170" />
      <path
         d="m 142.3004,72.9695 0.1815,0.0605"
         id="path171" />
      <path
         d="m 142.4819,73.03 0.0604,0.0605"
         id="path172" />
    </g>
  </g>
  <g
     style="fill:none;stroke:#689d6a;stroke-width:0.1524;stroke-linecap:round;stroke-linejoin:round;stroke-opacity:1"
     id="g174"
     transform="matrix(6,0,0,6,-749.99392,-437.3598)">
    <path
       d="m 140.97,78.74 v 0"
       id="path173" />
  </g>
  <g
     style="fill:#8ec07c;fill-opacity:1;stroke:#8ec07c;stroke-width:0.1524;stroke-linecap:round;stroke-linejoin:round;stroke-opacity:1"
     id="g175"
     transform="matrix(6,0,0,6,-749.99392,-437.3598)">
    <circle
       cx="140.97"
       cy="86.360001"
       r="0.45719999"
       id="circle174" />
  </g>
  <metadata
     id="metadata175">
    <rdf:RDF>
      <cc:Work
         rdf:about="">
        <dc:title>SVG Image created as pullup.svg date 2024/08/06 10:43:25 </dc:title>
      </cc:Work>
    </rdf:RDF>
  </metadata>
</svg>
